<?xml version="1.0" encoding="UTF-8"?>
<svg width="1024px" height="550px" viewBox="0 0 1024 550" version="1.1" xmlns="http://www.w3.org/2000/svg" xmlns:xlink="http://www.w3.org/1999/xlink">
    <title>Desktop</title>
    <g id="Desktop" stroke="none" stroke-width="1" fill="none" fill-rule="evenodd">
        <path d="M65.913,151 C84.4816667,151 98.6676667,145.464 108.471,134.392 C118.274333,123.32 123.176,108.269 123.176,89.239 C123.176,70.209 118.274333,55.158 108.471,44.086 C98.6676667,33.014 84.4816667,27.478 65.913,27.478 L65.913,27.478 L14.359,27.478 L14.359,151 L65.913,151 Z M62.626,127.991 L40.136,127.991 L40.136,50.487 L62.626,50.487 C74.39,50.487 83.0111667,54.0335 88.4895,61.1265 C93.9678333,68.2195 96.707,77.5903333 96.707,89.239 C96.707,100.887667 93.9678333,110.2585 88.4895,117.3515 C83.0111667,124.4445 74.39,127.991 62.626,127.991 L62.626,127.991 Z M184.764,153.249 C196.528,153.249 205.927667,150.654 212.963,145.464 C219.998333,140.274 224.438667,133.065667 226.284,123.839 L226.284,123.839 L201.718,123.839 C199.411333,130.067 193.875333,133.181 185.11,133.181 C171.385333,133.181 164.177,125.223 163.485,109.307 L163.485,109.307 L227.149,109.307 L227.149,102.041 C226.918333,89.585 222.997,79.4356667 215.385,71.593 C207.773,63.7503333 197.393,59.829 184.245,59.829 C170.520333,59.829 159.621333,64.0098333 151.548,72.3715 C143.474667,80.7331667 139.438,92.007 139.438,106.193 C139.438,120.494333 143.5035,131.912333 151.6345,140.447 C159.7655,148.981667 170.808667,153.249 184.764,153.249 Z M202.41,93.218 L164.35,93.218 C166.887333,83.0686667 173.461333,77.994 184.072,77.994 C194.682667,77.994 200.795333,83.0686667 202.41,93.218 L202.41,93.218 Z M283.201,153.249 C295.657,153.249 305.345,150.423333 312.265,144.772 C319.185,139.120667 322.645,132.316 322.645,124.358 C322.645,108.211333 313.187667,98.6963333 294.273,95.813 L294.273,95.813 L278.184,93.391 C274.724,92.699 272.273167,91.8628333 270.8315,90.8825 C269.389833,89.9021667 268.669,88.3163333 268.669,86.125 C268.669,81.0503333 272.994,78.513 281.644,78.513 C290.178667,78.513 294.965,81.1656667 296.003,86.471 L296.003,86.471 L320.05,86.471 C319.127333,78.3976667 315.350167,71.939 308.7185,67.095 C302.086833,62.251 293.292667,59.829 282.336,59.829 C269.88,59.829 260.4515,62.424 254.0505,67.614 C247.6495,72.804 244.449,79.4933333 244.449,87.682 C244.449,101.060667 252.407,109.249333 268.323,112.248 L268.323,112.248 L285.623,115.016 C290.236333,115.823333 293.523333,116.947833 295.484,118.3895 C297.444667,119.831167 298.425,121.993667 298.425,124.877 C298.425,131.335667 293.292667,134.565 283.028,134.565 C272.417333,134.565 266.535333,130.701333 265.382,122.974 L265.382,122.974 L241.335,122.974 C242.373,132.546667 246.323167,139.985667 253.1855,145.291 C260.047833,150.596333 270.053,153.249 283.201,153.249 Z M366.76,46.854 L366.76,25.229 L342.194,25.229 L342.194,46.854 L366.76,46.854 Z M366.587,151 L366.587,62.078 L342.367,62.078 L342.367,151 L366.587,151 Z M433.365,187.503 C446.628333,187.503 457.383167,183.812333 465.6295,176.431 C473.875833,169.049667 477.999,159.131 477.999,146.675 L477.999,146.675 L477.999,62.078 L454.644,62.078 L454.644,70.209 L450.146,70.209 C445.648,63.289 437.69,59.829 426.272,59.829 C414.508,59.829 405.0795,64.0098333 397.9865,72.3715 C390.8935,80.7331667 387.347,91.5456667 387.347,104.809 C387.347,118.072333 390.864667,128.856 397.9,137.16 C404.935333,145.464 414.335,149.616 426.099,149.616 C436.709667,149.616 444.437,146.213667 449.281,139.409 L449.281,139.409 L453.779,139.409 L453.779,144.599 C453.779,160.515 446.859,168.473 433.019,168.473 C422.062333,168.473 415.949667,164.84 414.681,157.574 L414.681,157.574 L390.634,157.574 C391.556667,167.146667 395.824,174.528 403.436,179.718 C411.048,184.908 421.024333,187.503 433.365,187.503 Z M432.846,129.375 C426.156667,129.375 420.937833,127.126 417.1895,122.628 C413.441167,118.13 411.567,112.190333 411.567,104.809 C411.567,97.4276667 413.441167,91.4591667 417.1895,86.9035 C420.937833,82.3478333 426.156667,80.07 432.846,80.07 C439.766,80.07 445.129,82.3766667 448.935,86.99 C452.741,91.6033333 454.644,97.543 454.644,104.809 C454.644,111.844333 452.741,117.6975 448.935,122.3685 C445.129,127.0395 439.766,129.375 432.846,129.375 Z M527.823,151 L527.823,103.771 C527.823,97.543 529.6395,92.2376667 533.2725,87.855 C536.9055,83.4723333 541.663,81.281 547.545,81.281 C553.196333,81.281 557.4925,82.9533333 560.4335,86.298 C563.3745,89.6426667 564.845,94.429 564.845,100.657 L564.845,100.657 L564.845,151 L589.065,151 L589.065,96.332 C589.065,84.6833333 586.325833,75.6873333 580.8475,69.344 C575.369167,63.0006667 567.151667,59.829 556.195,59.829 C545.123,59.829 536.876667,63.289 531.456,70.209 L531.456,70.209 L526.958,70.209 L526.958,62.078 L503.603,62.078 L503.603,151 L527.823,151 Z M28.545,324 L38.579,290.611 L85.635,290.611 L95.669,324 L121.792,324 L82.348,200.478 L42.385,200.478 L3.114,324 L28.545,324 Z M78.715,268.121 L45.153,268.121 L58.128,225.217 L65.74,225.217 L78.715,268.121 Z M161.928,324 L161.928,285.075 C161.928,266.737 170.981667,257.568 189.089,257.568 L189.089,257.568 L197.739,257.568 L197.739,235.078 L189.435,235.078 C178.017,235.078 170.059,238.422667 165.561,245.112 L165.561,245.112 L161.063,245.112 L161.063,235.078 L137.708,235.078 L137.708,324 L161.928,324 Z M269.707,324 L269.707,303.413 L261.576,303.413 C253.964,303.413 250.158,300.126 250.158,293.552 L250.158,293.552 L250.158,255.319 L269.707,255.319 L269.707,235.078 L250.158,235.078 L250.158,210.166 L225.938,210.166 L225.938,235.078 L212.963,235.078 L212.963,255.319 L225.938,255.319 L225.938,296.493 C225.938,306.642333 229.023167,313.764167 235.1935,317.8585 C241.363833,321.952833 250.042667,324 261.23,324 L261.23,324 L269.707,324 Z M66.951,497 L66.951,396.141 L105.357,396.141 L105.357,373.478 L2.768,373.478 L2.768,396.141 L41.174,396.141 L41.174,497 L66.951,497 Z M145.839,499.249 C157.603,499.249 167.002667,496.654 174.038,491.464 C181.073333,486.274 185.513667,479.065667 187.359,469.839 L187.359,469.839 L162.793,469.839 C160.486333,476.067 154.950333,479.181 146.185,479.181 C132.460333,479.181 125.252,471.223 124.56,455.307 L124.56,455.307 L188.224,455.307 L188.224,448.041 C187.993333,435.585 184.072,425.435667 176.46,417.593 C168.848,409.750333 158.468,405.829 145.32,405.829 C131.595333,405.829 120.696333,410.009833 112.623,418.3715 C104.549667,426.733167 100.513,438.007 100.513,452.193 C100.513,466.494333 104.5785,477.912333 112.7095,486.447 C120.8405,494.981667 131.883667,499.249 145.839,499.249 Z M163.485,439.218 L125.425,439.218 C127.962333,429.068667 134.536333,423.994 145.147,423.994 C155.757667,423.994 161.870333,429.068667 163.485,439.218 L163.485,439.218 Z M248.601,499.249 C259.673,499.249 268.9285,496.308 276.3675,490.426 C283.8065,484.544 288.102667,476.759 289.256,467.071 L289.256,467.071 L265.382,467.071 C263.882667,475.144333 258.346667,479.181 248.774,479.181 C241.738667,479.181 236.519833,476.6725 233.1175,471.6555 C229.715167,466.6385 228.014,460.208667 228.014,452.366 C228.014,444.523333 229.686333,438.18 233.031,433.336 C236.375667,428.492 241.623333,426.07 248.774,426.07 C257.308667,426.07 262.556333,429.53 264.517,436.45 L264.517,436.45 L288.564,436.45 C287.410667,427.223333 283.229833,419.813167 276.0215,414.2195 C268.813167,408.625833 259.673,405.829 248.601,405.829 C234.876333,405.829 223.977333,410.096333 215.904,418.631 C207.830667,427.165667 203.794,438.468333 203.794,452.539 C203.794,466.725 207.830667,478.0565 215.904,486.5335 C223.977333,495.0105 234.876333,499.249 248.601,499.249 Z M333.89,497 L333.89,449.771 C333.89,443.543 335.7065,438.237667 339.3395,433.855 C342.9725,429.472333 347.73,427.281 353.612,427.281 C365.145333,427.281 370.912,433.739667 370.912,446.657 L370.912,446.657 L370.912,497 L395.132,497 L395.132,442.332 C395.132,430.683333 392.421667,421.687333 387.001,415.344 C381.580333,409.000667 373.449333,405.829 362.608,405.829 C351.651333,405.829 343.578,409.289 338.388,416.209 L338.388,416.209 L333.89,416.209 L333.89,371.229 L309.67,371.229 L309.67,497 L333.89,497 Z M443.745,497 L443.745,449.771 C443.745,443.543 445.5615,438.237667 449.1945,433.855 C452.8275,429.472333 457.585,427.281 463.467,427.281 C469.118333,427.281 473.4145,428.953333 476.3555,432.298 C479.2965,435.642667 480.767,440.429 480.767,446.657 L480.767,446.657 L480.767,497 L504.987,497 L504.987,442.332 C504.987,430.683333 502.247833,421.687333 496.7695,415.344 C491.291167,409.000667 483.073667,405.829 472.117,405.829 C461.045,405.829 452.798667,409.289 447.378,416.209 L447.378,416.209 L442.88,416.209 L442.88,408.078 L419.525,408.078 L419.525,497 L443.745,497 Z M570.381,499.249 C584.451667,499.249 595.639,494.981667 603.943,486.447 C612.247,477.912333 616.399,466.609667 616.399,452.539 C616.399,438.468333 612.247,427.165667 603.943,418.631 C595.639,410.096333 584.451667,405.829 570.381,405.829 C556.425667,405.829 545.267167,410.125167 536.9055,418.7175 C528.543833,427.309833 524.363,438.583667 524.363,452.539 C524.363,466.494333 528.543833,477.768167 536.9055,486.3605 C545.267167,494.952833 556.425667,499.249 570.381,499.249 Z M570.381,479.181 C563.230333,479.181 557.809667,476.6725 554.119,471.6555 C550.428333,466.6385 548.583,460.266333 548.583,452.539 C548.583,444.927 550.428333,438.6125 554.119,433.5955 C557.809667,428.5785 563.230333,426.07 570.381,426.07 C577.647,426.07 583.0965,428.5785 586.7295,433.5955 C590.3625,438.6125 592.179,444.927 592.179,452.539 C592.179,460.266333 590.3625,466.6385 586.7295,471.6555 C583.0965,476.6725 577.647,479.181 570.381,479.181 Z M661.206,497 L661.206,371.229 L636.986,371.229 L636.986,497 L661.206,497 Z M727.811,499.249 C741.881667,499.249 753.069,494.981667 761.373,486.447 C769.677,477.912333 773.829,466.609667 773.829,452.539 C773.829,438.468333 769.677,427.165667 761.373,418.631 C753.069,410.096333 741.881667,405.829 727.811,405.829 C713.855667,405.829 702.697167,410.125167 694.3355,418.7175 C685.973833,427.309833 681.793,438.583667 681.793,452.539 C681.793,466.494333 685.973833,477.768167 694.3355,486.3605 C702.697167,494.952833 713.855667,499.249 727.811,499.249 Z M727.811,479.181 C720.660333,479.181 715.239667,476.6725 711.549,471.6555 C707.858333,466.6385 706.013,460.266333 706.013,452.539 C706.013,444.927 707.858333,438.6125 711.549,433.5955 C715.239667,428.5785 720.660333,426.07 727.811,426.07 C735.077,426.07 740.5265,428.5785 744.1595,433.5955 C747.7925,438.6125 749.609,444.927 749.609,452.539 C749.609,460.266333 747.7925,466.6385 744.1595,471.6555 C740.5265,476.6725 735.077,479.181 727.811,479.181 Z M835.417,533.503 C848.680333,533.503 859.435167,529.812333 867.6815,522.431 C875.927833,515.049667 880.051,505.131 880.051,492.675 L880.051,492.675 L880.051,408.078 L856.696,408.078 L856.696,416.209 L852.198,416.209 C847.7,409.289 839.742,405.829 828.324,405.829 C816.56,405.829 807.1315,410.009833 800.0385,418.3715 C792.9455,426.733167 789.399,437.545667 789.399,450.809 C789.399,464.072333 792.916667,474.856 799.952,483.16 C806.987333,491.464 816.387,495.616 828.151,495.616 C838.761667,495.616 846.489,492.213667 851.333,485.409 L851.333,485.409 L855.831,485.409 L855.831,490.599 C855.831,506.515 848.911,514.473 835.071,514.473 C824.114333,514.473 818.001667,510.84 816.733,503.574 L816.733,503.574 L792.686,503.574 C793.608667,513.146667 797.876,520.528 805.488,525.718 C813.1,530.908 823.076333,533.503 835.417,533.503 Z M834.898,475.375 C828.208667,475.375 822.989833,473.126 819.2415,468.628 C815.493167,464.13 813.619,458.190333 813.619,450.809 C813.619,443.427667 815.493167,437.459167 819.2415,432.9035 C822.989833,428.347833 828.208667,426.07 834.898,426.07 C841.818,426.07 847.181,428.376667 850.987,432.99 C854.793,437.603333 856.696,443.543 856.696,450.809 C856.696,457.844333 854.793,463.6975 850.987,468.3685 C847.181,473.0395 841.818,475.375 834.898,475.375 Z M939.044,531.6 L992.674,408.078 L968.281,408.078 L947.867,455.48 L943.369,455.48 L921.225,408.078 L895.967,408.078 L933.681,487.831 L914.824,531.6 L939.044,531.6 Z M1082.288,497 L1082.288,470.704 L1055.646,470.704 L1055.646,497 L1082.288,497 Z" id="Design.Art.Technology." fill="#000000" fill-rule="nonzero"></path>
    </g>
</svg>