<?xml version="1.0" encoding="UTF-8"?>
<svg width="1454px" height="494px" viewBox="0 0 1454 494" version="1.1" xmlns="http://www.w3.org/2000/svg" xmlns:xlink="http://www.w3.org/1999/xlink">
    <title>Desktop HD</title>
    <g id="Desktop-HD" stroke="none" stroke-width="1" fill="none" fill-rule="evenodd">
        <path d="M86.106,191 C110.363333,191 128.895333,183.768 141.702,169.304 C154.508667,154.84 160.912,135.178 160.912,110.318 C160.912,85.458 154.508667,65.796 141.702,51.332 C128.895333,36.868 110.363333,29.636 86.106,29.636 L86.106,29.636 L18.758,29.636 L18.758,191 L86.106,191 Z M81.812,160.942 L52.432,160.942 L52.432,59.694 L81.812,59.694 C97.18,59.694 108.442333,64.327 115.599,73.593 C122.755667,82.859 126.334,95.1006667 126.334,110.318 C126.334,125.535333 122.755667,137.777 115.599,147.043 C108.442333,156.309 97.18,160.942 81.812,160.942 L81.812,160.942 Z M241.368,193.938 C256.736,193.938 269.015333,190.548 278.206,183.768 C287.396667,176.988 293.197333,167.571333 295.608,155.518 L295.608,155.518 L263.516,155.518 C260.502667,163.654 253.270667,167.722 241.82,167.722 C223.890667,167.722 214.474,157.326 213.57,136.534 L213.57,136.534 L296.738,136.534 L296.738,127.042 C296.436667,110.77 291.314,97.5113333 281.37,87.266 C271.426,77.0206667 257.866,71.898 240.69,71.898 C222.760667,71.898 208.522667,77.3596667 197.976,88.283 C187.429333,99.2063333 182.156,113.934 182.156,132.466 C182.156,151.148667 187.467,166.064667 198.089,177.214 C208.711,188.363333 223.137333,193.938 241.368,193.938 Z M264.42,115.516 L214.7,115.516 C218.014667,102.257333 226.602667,95.628 240.464,95.628 C254.325333,95.628 262.310667,102.257333 264.42,115.516 L264.42,115.516 Z M369.962,193.938 C386.234,193.938 398.89,190.246667 407.93,182.864 C416.97,175.481333 421.49,166.592 421.49,156.196 C421.49,135.102667 409.135333,122.672667 384.426,118.906 L384.426,118.906 L363.408,115.742 C358.888,114.838 355.686333,113.745667 353.803,112.465 C351.919667,111.184333 350.978,109.112667 350.978,106.25 C350.978,99.6206667 356.628,96.306 367.928,96.306 C379.077333,96.306 385.33,99.7713333 386.686,106.702 L386.686,106.702 L418.1,106.702 C416.894667,96.1553333 411.960333,87.718 403.297,81.39 C394.633667,75.062 383.145333,71.898 368.832,71.898 C352.56,71.898 340.243,75.288 331.881,82.068 C323.519,88.848 319.338,97.5866667 319.338,108.284 C319.338,125.761333 329.734,136.458667 350.526,140.376 L350.526,140.376 L373.126,143.992 C379.152667,145.046667 383.446667,146.515667 386.008,148.399 C388.569333,150.282333 389.85,153.107333 389.85,156.874 C389.85,165.311333 383.145333,169.53 369.736,169.53 C355.874667,169.53 348.190667,164.482667 346.684,154.388 L346.684,154.388 L315.27,154.388 C316.626,166.893333 321.786333,176.611333 330.751,183.542 C339.715667,190.472667 352.786,193.938 369.962,193.938 Z M479.12,54.948 L479.12,26.698 L447.028,26.698 L447.028,54.948 L479.12,54.948 Z M478.894,191 L478.894,74.836 L447.254,74.836 L447.254,191 L478.894,191 Z M566.13,238.686 C583.456667,238.686 597.506333,233.864667 608.279,224.222 C619.051667,214.579333 624.438,201.622 624.438,185.35 L624.438,185.35 L624.438,74.836 L593.928,74.836 L593.928,85.458 L588.052,85.458 C582.176,76.418 571.78,71.898 556.864,71.898 C541.496,71.898 529.179,77.3596667 519.913,88.283 C510.647,99.2063333 506.014,113.331333 506.014,130.658 C506.014,147.984667 510.609333,162.072 519.8,172.92 C528.990667,183.768 541.27,189.192 556.638,189.192 C570.499333,189.192 580.594,184.747333 586.922,175.858 L586.922,175.858 L592.798,175.858 L592.798,182.638 C592.798,203.43 583.758,213.826 565.678,213.826 C551.364667,213.826 543.379333,209.08 541.722,199.588 L541.722,199.588 L510.308,199.588 C511.513333,212.093333 517.088,221.736 527.032,228.516 C536.976,235.296 550.008667,238.686 566.13,238.686 Z M565.452,162.75 C556.713333,162.75 549.895667,159.812 544.999,153.936 C540.102333,148.06 537.654,140.300667 537.654,130.658 C537.654,121.015333 540.102333,113.218333 544.999,107.267 C549.895667,101.315667 556.713333,98.34 565.452,98.34 C574.492,98.34 581.498,101.353333 586.47,107.38 C591.442,113.406667 593.928,121.166 593.928,130.658 C593.928,139.848667 591.442,147.495 586.47,153.597 C581.498,159.699 574.492,162.75 565.452,162.75 Z M689.526,191 L689.526,129.302 C689.526,121.166 691.899,114.235333 696.645,108.51 C701.391,102.784667 707.606,99.922 715.29,99.922 C722.672667,99.922 728.285,102.106667 732.127,106.476 C735.969,110.845333 737.89,117.098 737.89,125.234 L737.89,125.234 L737.89,191 L769.53,191 L769.53,119.584 C769.53,104.366667 765.951667,92.6146667 758.795,84.328 C751.638333,76.0413333 740.903333,71.898 726.59,71.898 C712.126,71.898 701.353333,76.418 694.272,85.458 L694.272,85.458 L688.396,85.458 L688.396,74.836 L657.886,74.836 L657.886,191 L689.526,191 Z M985.836,191 L998.944,147.382 L1060.416,147.382 L1073.524,191 L1107.65,191 L1056.122,29.636 L1003.916,29.636 L952.614,191 L985.836,191 Z M1051.376,118.002 L1007.532,118.002 L1024.482,61.954 L1034.426,61.954 L1051.376,118.002 Z M1160.082,191 L1160.082,140.15 C1160.082,116.194 1171.90933,104.216 1195.564,104.216 L1195.564,104.216 L1206.864,104.216 L1206.864,74.836 L1196.016,74.836 C1181.1,74.836 1170.704,79.2053333 1164.828,87.944 L1164.828,87.944 L1158.952,87.944 L1158.952,74.836 L1128.442,74.836 L1128.442,191 L1160.082,191 Z M1300.88,191 L1300.88,164.106 L1290.258,164.106 C1280.314,164.106 1275.342,159.812 1275.342,151.224 L1275.342,151.224 L1275.342,101.278 L1300.88,101.278 L1300.88,74.836 L1275.342,74.836 L1275.342,42.292 L1243.702,42.292 L1243.702,74.836 L1226.752,74.836 L1226.752,101.278 L1243.702,101.278 L1243.702,155.066 C1243.702,168.324667 1247.73233,177.628333 1255.793,182.977 C1263.85367,188.325667 1275.19133,191 1289.806,191 L1289.806,191 L1300.88,191 Z M87.462,417 L87.462,285.242 L137.634,285.242 L137.634,255.636 L3.616,255.636 L3.616,285.242 L53.788,285.242 L53.788,417 L87.462,417 Z M190.518,419.938 C205.886,419.938 218.165333,416.548 227.356,409.768 C236.546667,402.988 242.347333,393.571333 244.758,381.518 L244.758,381.518 L212.666,381.518 C209.652667,389.654 202.420667,393.722 190.97,393.722 C173.040667,393.722 163.624,383.326 162.72,362.534 L162.72,362.534 L245.888,362.534 L245.888,353.042 C245.586667,336.77 240.464,323.511333 230.52,313.266 C220.576,303.020667 207.016,297.898 189.84,297.898 C171.910667,297.898 157.672667,303.359667 147.126,314.283 C136.579333,325.206333 131.306,339.934 131.306,358.466 C131.306,377.148667 136.617,392.064667 147.239,403.214 C157.861,414.363333 172.287333,419.938 190.518,419.938 Z M213.57,341.516 L163.85,341.516 C167.164667,328.257333 175.752667,321.628 189.614,321.628 C203.475333,321.628 211.460667,328.257333 213.57,341.516 L213.57,341.516 Z M324.762,419.938 C339.226,419.938 351.317,416.096 361.035,408.412 C370.753,400.728 376.365333,390.558 377.872,377.902 L377.872,377.902 L346.684,377.902 C344.725333,388.448667 337.493333,393.722 324.988,393.722 C315.797333,393.722 308.979667,390.445 304.535,383.891 C300.090333,377.337 297.868,368.937333 297.868,358.692 C297.868,348.446667 300.052667,340.16 304.422,333.832 C308.791333,327.504 315.646667,324.34 324.988,324.34 C336.137333,324.34 342.992667,328.86 345.554,337.9 L345.554,337.9 L376.968,337.9 C375.461333,325.846667 369.999667,316.166333 360.583,308.859 C351.166333,301.551667 339.226,297.898 324.762,297.898 C306.832667,297.898 292.594667,303.472667 282.048,314.622 C271.501333,325.771333 266.228,340.536667 266.228,358.918 C266.228,377.45 271.501333,392.253 282.048,403.327 C292.594667,414.401 306.832667,419.938 324.762,419.938 Z M436.18,417 L436.18,355.302 C436.18,347.166 438.553,340.235333 443.299,334.51 C448.045,328.784667 454.26,325.922 461.944,325.922 C477.010667,325.922 484.544,334.359333 484.544,351.234 L484.544,351.234 L484.544,417 L516.184,417 L516.184,345.584 C516.184,330.366667 512.643333,318.614667 505.562,310.328 C498.480667,302.041333 487.858667,297.898 473.696,297.898 C459.382667,297.898 448.836,302.418 442.056,311.458 L442.056,311.458 L436.18,311.458 L436.18,252.698 L404.54,252.698 L404.54,417 L436.18,417 Z M579.69,417 L579.69,355.302 C579.69,347.166 582.063,340.235333 586.809,334.51 C591.555,328.784667 597.77,325.922 605.454,325.922 C612.836667,325.922 618.449,328.106667 622.291,332.476 C626.133,336.845333 628.054,343.098 628.054,351.234 L628.054,351.234 L628.054,417 L659.694,417 L659.694,345.584 C659.694,330.366667 656.115667,318.614667 648.959,310.328 C641.802333,302.041333 631.067333,297.898 616.754,297.898 C602.29,297.898 591.517333,302.418 584.436,311.458 L584.436,311.458 L578.56,311.458 L578.56,300.836 L548.05,300.836 L548.05,417 L579.69,417 Z M745.122,419.938 C763.503333,419.938 778.118,414.363333 788.966,403.214 C799.814,392.064667 805.238,377.299333 805.238,358.918 C805.238,340.536667 799.814,325.771333 788.966,314.622 C778.118,303.472667 763.503333,297.898 745.122,297.898 C726.891333,297.898 712.314333,303.510333 701.391,314.735 C690.467667,325.959667 685.006,340.687333 685.006,358.918 C685.006,377.148667 690.467667,391.876333 701.391,403.101 C712.314333,414.325667 726.891333,419.938 745.122,419.938 Z M745.122,393.722 C735.780667,393.722 728.699333,390.445 723.878,383.891 C719.056667,377.337 716.646,369.012667 716.646,358.918 C716.646,348.974 719.056667,340.725 723.878,334.171 C728.699333,327.617 735.780667,324.34 745.122,324.34 C754.614,324.34 761.733,327.617 766.479,334.171 C771.225,340.725 773.598,348.974 773.598,358.918 C773.598,369.012667 771.225,377.337 766.479,383.891 C761.733,390.445 754.614,393.722 745.122,393.722 Z M863.772,417 L863.772,252.698 L832.132,252.698 L832.132,417 L863.772,417 Z M950.782,419.938 C969.163333,419.938 983.778,414.363333 994.626,403.214 C1005.474,392.064667 1010.898,377.299333 1010.898,358.918 C1010.898,340.536667 1005.474,325.771333 994.626,314.622 C983.778,303.472667 969.163333,297.898 950.782,297.898 C932.551333,297.898 917.974333,303.510333 907.051,314.735 C896.127667,325.959667 890.666,340.687333 890.666,358.918 C890.666,377.148667 896.127667,391.876333 907.051,403.101 C917.974333,414.325667 932.551333,419.938 950.782,419.938 Z M950.782,393.722 C941.440667,393.722 934.359333,390.445 929.538,383.891 C924.716667,377.337 922.306,369.012667 922.306,358.918 C922.306,348.974 924.716667,340.725 929.538,334.171 C934.359333,327.617 941.440667,324.34 950.782,324.34 C960.274,324.34 967.393,327.617 972.139,334.171 C976.885,340.725 979.258,348.974 979.258,358.918 C979.258,369.012667 976.885,377.337 972.139,383.891 C967.393,390.445 960.274,393.722 950.782,393.722 Z M1091.354,464.686 C1108.68067,464.686 1122.73033,459.864667 1133.503,450.222 C1144.27567,440.579333 1149.662,427.622 1149.662,411.35 L1149.662,411.35 L1149.662,300.836 L1119.152,300.836 L1119.152,311.458 L1113.276,311.458 C1107.4,302.418 1097.004,297.898 1082.088,297.898 C1066.72,297.898 1054.403,303.359667 1045.137,314.283 C1035.871,325.206333 1031.238,339.331333 1031.238,356.658 C1031.238,373.984667 1035.83333,388.072 1045.024,398.92 C1054.21467,409.768 1066.494,415.192 1081.862,415.192 C1095.72333,415.192 1105.818,410.747333 1112.146,401.858 L1112.146,401.858 L1118.022,401.858 L1118.022,408.638 C1118.022,429.43 1108.982,439.826 1090.902,439.826 C1076.58867,439.826 1068.60333,435.08 1066.946,425.588 L1066.946,425.588 L1035.532,425.588 C1036.73733,438.093333 1042.312,447.736 1052.256,454.516 C1062.2,461.296 1075.23267,464.686 1091.354,464.686 Z M1090.676,388.75 C1081.93733,388.75 1075.11967,385.812 1070.223,379.936 C1065.32633,374.06 1062.878,366.300667 1062.878,356.658 C1062.878,347.015333 1065.32633,339.218333 1070.223,333.267 C1075.11967,327.315667 1081.93733,324.34 1090.676,324.34 C1099.716,324.34 1106.722,327.353333 1111.694,333.38 C1116.666,339.406667 1119.152,347.166 1119.152,356.658 C1119.152,365.848667 1116.666,373.495 1111.694,379.597 C1106.722,385.699 1099.716,388.75 1090.676,388.75 Z M1226.728,462.2 L1296.788,300.836 L1264.922,300.836 L1238.254,362.76 L1232.378,362.76 L1203.45,300.836 L1170.454,300.836 L1219.722,405.022 L1195.088,462.2 L1226.728,462.2 Z" id="Design.Art.Technology." fill="#000000" fill-rule="nonzero"></path>
    </g>
</svg>